<svg xmlns="http://www.w3.org/2000/svg" width="24" height="24" viewBox="0 0 24 24" fill="none"><path d="M5.68 14.14V12.295H7.81C8.24 12.295 8.6 12.21 8.89 12.04C9.19 11.87 9.415 11.635 9.565 11.335C9.725 11.035 9.805 10.69 9.805 10.3C9.805 9.91 9.725 9.565 9.565 9.265C9.415 8.965 9.19 8.735 8.89 8.575C8.6 8.405 8.24 8.32 7.81 8.32H5.68V6.475H7.63C8.55 6.475 9.33 6.625 9.97 6.925C10.62 7.225 11.115 7.655 11.455 8.215C11.795 8.765 11.965 9.42 11.965 10.18V10.42C11.965 11.18 11.795 11.84 11.455 12.4C11.115 12.95 10.62 13.38 9.97 13.69C9.33 13.99 8.55 14.14 7.63 14.14H5.68ZM3.85 17.5V6.475H5.98V17.5H3.85ZM16.4545 17.755C15.3345 17.755 14.4545 17.52 13.8145 17.05C13.1845 16.57 12.8545 15.91 12.8245 15.07H14.6995C14.7295 15.35 14.8845 15.605 15.1645 15.835C15.4445 16.065 15.8845 16.18 16.4845 16.18C16.9845 16.18 17.3795 16.09 17.6695 15.91C17.9695 15.73 18.1195 15.485 18.1195 15.175C18.1195 14.905 18.0045 14.69 17.7745 14.53C17.5545 14.37 17.1745 14.265 16.6345 14.215L15.9145 14.14C15.0045 14.04 14.3045 13.78 13.8145 13.36C13.3245 12.94 13.0795 12.38 13.0795 11.68C13.0795 11.12 13.2195 10.65 13.4995 10.27C13.7795 9.89 14.1645 9.605 14.6545 9.415C15.1545 9.215 15.7245 9.115 16.3645 9.115C17.3645 9.115 18.1745 9.335 18.7945 9.775C19.4145 10.215 19.7395 10.86 19.7695 11.71H17.8945C17.8745 11.43 17.7345 11.19 17.4745 10.99C17.2145 10.79 16.8395 10.69 16.3495 10.69C15.9095 10.69 15.5695 10.775 15.3295 10.945C15.0895 11.115 14.9695 11.335 14.9695 11.605C14.9695 11.865 15.0645 12.065 15.2545 12.205C15.4545 12.345 15.7745 12.44 16.2145 12.49L16.9345 12.565C17.8945 12.665 18.6445 12.93 19.1845 13.36C19.7345 13.79 20.0095 14.37 20.0095 15.1C20.0095 15.64 19.8595 16.11 19.5595 16.51C19.2695 16.9 18.8595 17.205 18.3295 17.425C17.7995 17.645 17.1745 17.755 16.4545 17.755Z" fill="#45505F"></path><rect x="0.5" y="0.5" width="23" height="23" rx="3.5" stroke="#45505F"></rect></svg>