<svg xmlns="http://www.w3.org/2000/svg" width="24" height="24" viewBox="0 0 24 24" fill="none"><path d="M3.65625 4.5C3.65625 6.09375 4.45312 7.45312 5.67188 8.25C4.45312 9.09375 3.65625 10.4531 3.65625 12.0469C3.65625 13.5938 4.45312 14.9531 5.67188 15.7969C4.45312 16.5938 3.65625 17.9531 3.65625 19.5469C3.65625 22.0312 5.67188 24 8.15625 24C10.6406 24 12.7031 21.9844 12.7031 19.5V15.3281C13.5 16.0781 14.5781 16.5 15.75 16.5H15.8438C18.3281 16.5 20.2969 14.4844 20.2969 12.0469C20.2969 10.4531 19.5 9.09375 18.2812 8.25C19.5 7.45312 20.2969 6.09375 20.2969 4.5C20.2969 2.01562 18.3281 0 15.8438 0H8.10938C5.625 0 3.65625 2.01562 3.65625 4.5ZM11.25 9V15.0469H8.10938C6.42188 15.0469 5.10938 13.6875 5.10938 12.0469C5.10938 10.3594 6.46875 9 8.10938 9H11.25ZM12.7031 12.0469C12.7031 10.3594 14.0625 9 15.75 9H15.8438C17.4844 9 18.8438 10.3594 18.8438 12.0469C18.8438 13.6875 17.4844 15.0469 15.8438 15.0469H15.75C14.0625 15.0469 12.7031 13.6875 12.7031 12.0469ZM8.10938 16.5H11.25V19.5C11.25 21.1875 9.84375 22.5469 8.15625 22.5469C6.46875 22.5469 5.10938 21.1875 5.10938 19.5469C5.10938 17.8594 6.42188 16.5469 8.10938 16.5ZM8.10938 1.5H11.25V7.54688H8.10938C6.46875 7.54688 5.10938 6.1875 5.10938 4.5C5.10938 2.85938 6.46875 1.5 8.10938 1.5ZM12.7031 7.54688V1.5H15.8438C17.4844 1.5 18.8438 2.85938 18.8438 4.5C18.8438 6.1875 17.4844 7.54688 15.8438 7.54688H12.7031Z" fill="#45505F"></path></svg>