<svg xmlns="http://www.w3.org/2000/svg" width="1077" height="768" viewBox="0 0 1077 768" fill="none"><path fill-rule="evenodd" clip-rule="evenodd" d="M788.399 -312.82C969.761 -338.221 1141.77 -574.528 1292.68 -470.842C1436.68 -371.905 1315.39 -139.919 1291.94 33.1429C1273.23 171.158 1251.35 302.137 1172.38 416.892C1070.6 564.794 964.968 797.76 788.399 764.857C605.222 730.724 661.4 423.265 525.108 296.278C376.915 158.203 39.3107 232.36 3.06695 33.1429C-31.3736 -156.163 231.917 -269.337 408.086 -346.945C529.162 -400.283 657.363 -294.467 788.399 -312.82Z" fill="url(#paint0_linear_5041_507)"></path><path fill-rule="evenodd" clip-rule="evenodd" d="M827.372 -260.947C972.381 -281.228 1109.91 -469.9 1230.58 -387.115C1345.71 -308.122 1248.73 -122.9 1229.98 15.2762C1215.03 125.47 1197.53 230.046 1134.38 321.669C1053 439.756 968.549 625.761 827.372 599.491C680.911 572.238 725.829 326.757 616.855 225.368C498.366 115.127 228.431 174.335 199.452 15.2762C171.915 -135.869 382.432 -226.23 523.289 -288.193C620.097 -330.779 722.601 -246.294 827.372 -260.947Z" fill="url(#paint1_linear_5041_507)"></path><defs><linearGradient id="paint0_linear_5041_507" x1="681.547" y1="-71.8681" x2="681" y2="768" gradientUnits="userSpaceOnUse"><stop stop-color="white" stop-opacity="0.24"></stop><stop offset="1" stop-color="white" stop-opacity="0.4"></stop></linearGradient><linearGradient id="paint1_linear_5041_507" x1="741.5" y1="-408" x2="741.5" y2="602" gradientUnits="userSpaceOnUse"><stop stop-color="white" stop-opacity="0"></stop><stop offset="1" stop-color="white"></stop></linearGradient></defs></svg>